<svg xmlns="http://www.w3.org/2000/svg" xmlns:xlink="http://www.w3.org/1999/xlink" width="48" zoomAndPan="magnify" viewBox="0 0 36 36.000001" height="48" preserveAspectRatio="xMidYMid meet" version="1.2"><defs><clipPath id="10ceb72d07"><path d="M 0.898438 18 L 29 18 L 29 35 L 0.898438 35 Z M 0.898438 18 "/></clipPath><clipPath id="547b8ad577"><path d="M 0.898438 18 L 29 18 L 29 28 L 0.898438 28 Z M 0.898438 18 "/></clipPath><clipPath id="c157403720"><path d="M 0.898438 23 L 29 23 L 29 35 L 0.898438 35 Z M 0.898438 23 "/></clipPath><clipPath id="a6910338dc"><path d="M 0.898438 9 L 29 9 L 29 26 L 0.898438 26 Z M 0.898438 9 "/></clipPath><clipPath id="71c5da6f94"><path d="M 0.898438 9 L 29 9 L 29 19 L 0.898438 19 Z M 0.898438 9 "/></clipPath><clipPath id="cb9f9fdf7d"><path d="M 0.898438 13 L 29 13 L 29 26 L 0.898438 26 Z M 0.898438 13 "/></clipPath><clipPath id="f1df664401"><path d="M 0.898438 0 L 29 0 L 29 17 L 0.898438 17 Z M 0.898438 0 "/></clipPath><clipPath id="fe1e3a94e5"><path d="M 0.898438 0 L 29 0 L 29 9 L 0.898438 9 Z M 0.898438 0 "/></clipPath><clipPath id="59b233fb4b"><path d="M 0.898438 4 L 29 4 L 29 17 L 0.898438 17 Z M 0.898438 4 "/></clipPath><clipPath id="b16f03dccb"><path d="M 2 0 L 27 0 L 27 35.027344 L 2 35.027344 Z M 2 0 "/></clipPath><filter x="0%" y="0%" width="100%" filterUnits="objectBoundingBox" id="d7140a9de8" height="100%"><feColorMatrix values="0 0 0 0 1 0 0 0 0 1 0 0 0 0 1 0 0 0 1 0" type="matrix" in="SourceGraphic"/></filter><clipPath id="8876f0d2b3"><rect x="0" width="25" y="0" height="36"/></clipPath><clipPath id="d0a65b822e"><path d="M 21 20 L 35.199219 20 L 35.199219 35 L 21 35 Z M 21 20 "/></clipPath></defs><g id="9ebc225ae8"><g clip-rule="nonzero" clip-path="url(#10ceb72d07)"><path style=" stroke:none;fill-rule:nonzero;fill:#4f5d99;fill-opacity:1;" d="M 28.144531 23.066406 L 28.144531 30.566406 C 28.144531 32.96875 22.042969 34.914062 14.527344 34.914062 C 7.003906 34.914062 0.90625 32.96875 0.90625 30.566406 L 0.90625 23.066406 C 0.90625 20.660156 7.003906 18.710938 14.527344 18.710938 C 22.042969 18.710938 28.144531 20.660156 28.144531 23.066406 Z M 28.144531 23.066406 "/></g><g clip-rule="nonzero" clip-path="url(#547b8ad577)"><path style=" stroke:none;fill-rule:nonzero;fill:#3d4a75;fill-opacity:1;" d="M 28.144531 23.066406 C 28.144531 25.46875 22.042969 27.414062 14.527344 27.414062 C 7.003906 27.414062 0.90625 25.46875 0.90625 23.066406 C 0.90625 20.660156 7.003906 18.710938 14.527344 18.710938 C 22.042969 18.710938 28.144531 20.660156 28.144531 23.066406 Z M 28.144531 23.066406 "/></g><g clip-rule="nonzero" clip-path="url(#c157403720)"><path style=" stroke:none;fill-rule:nonzero;fill:#4f5d99;fill-opacity:1;" d="M 0.90625 23.066406 C 0.90625 25.46875 7.003906 27.414062 14.527344 27.414062 C 22.042969 27.414062 28.144531 25.46875 28.144531 23.066406 L 28.144531 30.566406 C 28.144531 32.96875 22.042969 34.914062 14.527344 34.914062 C 7.003906 34.914062 0.90625 32.96875 0.90625 30.566406 Z M 0.90625 23.066406 "/></g><path style=" stroke:none;fill-rule:nonzero;fill:#e9e9ff;fill-opacity:1;" d="M 9.539062 31.035156 C 9.539062 31.378906 9.238281 31.644531 8.894531 31.605469 C 5.921875 31.265625 3.953125 30.570312 3.179688 30.046875 C 3.042969 29.953125 2.96875 29.796875 2.96875 29.636719 C 2.96875 29.285156 3.308594 29.046875 3.628906 29.160156 C 5.234375 29.726562 7.105469 30.25 9.019531 30.457031 C 9.3125 30.488281 9.539062 30.734375 9.539062 31.035156 Z M 9.539062 31.035156 "/><path style=" stroke:none;fill-rule:nonzero;fill:#7bd681;fill-opacity:1;" d="M 26.460938 29.261719 C 26.460938 29.777344 26.042969 30.191406 25.53125 30.191406 C 25.015625 30.191406 24.597656 29.777344 24.597656 29.261719 C 24.597656 28.742188 25.015625 28.324219 25.53125 28.324219 C 26.042969 28.324219 26.460938 28.742188 26.460938 29.261719 Z M 26.460938 29.261719 "/><path style=" stroke:none;fill-rule:nonzero;fill:#ed524e;fill-opacity:1;" d="M 19.972656 30.675781 C 19.972656 31.195312 19.554688 31.609375 19.039062 31.609375 C 18.527344 31.609375 18.109375 31.195312 18.109375 30.675781 C 18.109375 30.160156 18.527344 29.738281 19.039062 29.738281 C 19.554688 29.738281 19.972656 30.160156 19.972656 30.675781 Z M 19.972656 30.675781 "/><g clip-rule="nonzero" clip-path="url(#a6910338dc)"><path style=" stroke:none;fill-rule:nonzero;fill:#4f5d99;fill-opacity:1;" d="M 28.144531 13.765625 L 28.144531 21.265625 C 28.144531 23.664062 22.042969 25.613281 14.527344 25.613281 C 7.003906 25.613281 0.90625 23.664062 0.90625 21.265625 L 0.90625 13.765625 C 0.90625 11.359375 7.003906 9.410156 14.527344 9.410156 C 22.042969 9.410156 28.144531 11.359375 28.144531 13.765625 Z M 28.144531 13.765625 "/></g><g clip-rule="nonzero" clip-path="url(#71c5da6f94)"><path style=" stroke:none;fill-rule:nonzero;fill:#3d4a75;fill-opacity:1;" d="M 28.144531 13.765625 C 28.144531 16.167969 22.042969 18.113281 14.527344 18.113281 C 7.003906 18.113281 0.90625 16.167969 0.90625 13.765625 C 0.90625 11.359375 7.003906 9.410156 14.527344 9.410156 C 22.042969 9.410156 28.144531 11.359375 28.144531 13.765625 Z M 28.144531 13.765625 "/></g><g clip-rule="nonzero" clip-path="url(#cb9f9fdf7d)"><path style=" stroke:none;fill-rule:nonzero;fill:#4f5d99;fill-opacity:1;" d="M 0.90625 13.765625 C 0.90625 16.167969 7.003906 18.113281 14.527344 18.113281 C 22.042969 18.113281 28.144531 16.167969 28.144531 13.765625 L 28.144531 21.265625 C 28.144531 23.667969 22.042969 25.613281 14.527344 25.613281 C 7.003906 25.613281 0.90625 23.667969 0.90625 21.265625 Z M 0.90625 13.765625 "/></g><path style=" stroke:none;fill-rule:nonzero;fill:#e9e9ff;fill-opacity:1;" d="M 9.539062 21.730469 C 9.539062 22.078125 9.238281 22.34375 8.894531 22.304688 C 5.921875 21.964844 3.953125 21.269531 3.179688 20.746094 C 3.042969 20.652344 2.96875 20.496094 2.96875 20.335938 C 2.96875 19.984375 3.308594 19.746094 3.628906 19.855469 C 5.234375 20.425781 7.105469 20.949219 9.019531 21.15625 C 9.3125 21.1875 9.539062 21.433594 9.539062 21.730469 Z M 9.539062 21.730469 "/><path style=" stroke:none;fill-rule:nonzero;fill:#7bd681;fill-opacity:1;" d="M 26.460938 19.960938 C 26.460938 20.476562 26.042969 20.890625 25.53125 20.890625 C 25.015625 20.890625 24.597656 20.476562 24.597656 19.960938 C 24.597656 19.441406 25.015625 19.023438 25.53125 19.023438 C 26.042969 19.023438 26.460938 19.441406 26.460938 19.960938 Z M 26.460938 19.960938 "/><path style=" stroke:none;fill-rule:nonzero;fill:#fdc72e;fill-opacity:1;" d="M 23.269531 20.894531 C 23.269531 21.410156 22.847656 21.828125 22.335938 21.828125 C 21.820312 21.828125 21.402344 21.410156 21.402344 20.894531 C 21.402344 20.378906 21.820312 19.957031 22.335938 19.957031 C 22.847656 19.957031 23.269531 20.378906 23.269531 20.894531 Z M 23.269531 20.894531 "/><path style=" stroke:none;fill-rule:nonzero;fill:#ed524e;fill-opacity:1;" d="M 19.972656 21.375 C 19.972656 21.894531 19.554688 22.308594 19.039062 22.308594 C 18.527344 22.308594 18.109375 21.894531 18.109375 21.375 C 18.109375 20.859375 18.527344 20.4375 19.039062 20.4375 C 19.554688 20.4375 19.972656 20.859375 19.972656 21.375 Z M 19.972656 21.375 "/><g clip-rule="nonzero" clip-path="url(#f1df664401)"><path style=" stroke:none;fill-rule:nonzero;fill:#4f5d99;fill-opacity:1;" d="M 28.144531 4.464844 L 28.144531 11.960938 C 28.144531 14.363281 22.042969 16.3125 14.527344 16.3125 C 7.003906 16.3125 0.90625 14.363281 0.90625 11.960938 L 0.90625 4.464844 C 0.90625 2.058594 7.003906 0.109375 14.527344 0.109375 C 22.042969 0.109375 28.144531 2.058594 28.144531 4.464844 Z M 28.144531 4.464844 "/></g><g clip-rule="nonzero" clip-path="url(#fe1e3a94e5)"><path style=" stroke:none;fill-rule:nonzero;fill:#3d4a75;fill-opacity:1;" d="M 28.144531 4.464844 C 28.144531 6.863281 22.042969 8.8125 14.527344 8.8125 C 7.003906 8.8125 0.90625 6.863281 0.90625 4.464844 C 0.90625 2.058594 7.003906 0.109375 14.527344 0.109375 C 22.042969 0.109375 28.144531 2.058594 28.144531 4.464844 Z M 28.144531 4.464844 "/></g><g clip-rule="nonzero" clip-path="url(#59b233fb4b)"><path style=" stroke:none;fill-rule:nonzero;fill:#4f5d99;fill-opacity:1;" d="M 0.90625 4.464844 C 0.90625 6.863281 7.003906 8.8125 14.527344 8.8125 C 22.042969 8.8125 28.144531 6.863281 28.144531 4.464844 L 28.144531 11.964844 C 28.144531 14.363281 22.042969 16.3125 14.527344 16.3125 C 7.003906 16.3125 0.90625 14.363281 0.90625 11.964844 Z M 0.90625 4.464844 "/></g><path style=" stroke:none;fill-rule:nonzero;fill:#e9e9ff;fill-opacity:1;" d="M 9.539062 12.429688 C 9.539062 12.777344 9.238281 13.042969 8.894531 13.003906 C 5.921875 12.664062 3.953125 11.964844 3.179688 11.445312 C 3.042969 11.351562 2.96875 11.195312 2.96875 11.03125 C 2.96875 10.683594 3.308594 10.445312 3.628906 10.554688 C 5.234375 11.125 7.105469 11.648438 9.019531 11.855469 C 9.3125 11.886719 9.539062 12.132812 9.539062 12.429688 Z M 9.539062 12.429688 "/><path style=" stroke:none;fill-rule:nonzero;fill:#7bd681;fill-opacity:1;" d="M 26.460938 10.65625 C 26.460938 11.175781 26.042969 11.589844 25.53125 11.589844 C 25.015625 11.589844 24.597656 11.175781 24.597656 10.65625 C 24.597656 10.140625 25.015625 9.71875 25.53125 9.71875 C 26.042969 9.71875 26.460938 10.140625 26.460938 10.65625 Z M 26.460938 10.65625 "/><path style=" stroke:none;fill-rule:nonzero;fill:#fdc72e;fill-opacity:1;" d="M 23.269531 11.59375 C 23.269531 12.109375 22.847656 12.527344 22.335938 12.527344 C 21.820312 12.527344 21.402344 12.109375 21.402344 11.59375 C 21.402344 11.074219 21.820312 10.65625 22.335938 10.65625 C 22.847656 10.65625 23.269531 11.074219 23.269531 11.59375 Z M 23.269531 11.59375 "/><path style=" stroke:none;fill-rule:nonzero;fill:#ed524e;fill-opacity:1;" d="M 19.972656 12.074219 C 19.972656 12.59375 19.554688 13.007812 19.039062 13.007812 C 18.527344 13.007812 18.109375 12.59375 18.109375 12.074219 C 18.109375 11.558594 18.527344 11.136719 19.039062 11.136719 C 19.554688 11.136719 19.972656 11.558594 19.972656 12.074219 Z M 19.972656 12.074219 "/><g clip-rule="nonzero" clip-path="url(#b16f03dccb)"><g mask="url(#f4b900a12d)" transform="matrix(1,0,0,1,2,0.000000000000010582)"><g clip-path="url(#8876f0d2b3)"><path style=" stroke:none;fill-rule:nonzero;fill:#ffffff;fill-opacity:1;" d="M 18.875 34.414062 C 16.980469 34.738281 14.824219 34.917969 12.53125 34.917969 C 11.472656 34.917969 10.441406 34.878906 9.457031 34.804688 L 1.371094 1.96875 C 3.449219 1.015625 6.6875 0.347656 10.429688 0.164062 Z M 18.875 34.414062 "/><path style=" stroke:none;fill-rule:nonzero;fill:#ffffff;fill-opacity:1;" d="M 23.683594 33.0625 C 22.972656 33.382812 22.136719 33.671875 21.195312 33.921875 L 12.867188 0.113281 C 13.804688 0.117188 14.714844 0.15625 15.59375 0.222656 Z M 23.683594 33.0625 "/></g><mask id="f4b900a12d"><g filter="url(#d7140a9de8)"><rect x="0" width="36" y="0" height="36.000001" style="fill:#000000;fill-opacity:0.16;stroke:none;"/></g></mask></g></g><g clip-rule="nonzero" clip-path="url(#d0a65b822e)"><path style=" stroke:none;fill-rule:nonzero;fill:#70c1f9;fill-opacity:1;" d="M 34.996094 26.707031 L 33.207031 26.230469 C 33.113281 25.929688 32.988281 25.636719 32.84375 25.359375 L 33.78125 23.753906 C 33.835938 23.652344 33.824219 23.523438 33.738281 23.4375 L 32.515625 22.210938 C 32.429688 22.125 32.300781 22.105469 32.195312 22.167969 L 30.597656 23.101562 C 30.410156 23.003906 30.21875 22.914062 30.015625 22.839844 C 29.921875 22.800781 29.828125 22.773438 29.730469 22.738281 L 29.265625 20.945312 C 29.230469 20.828125 29.128906 20.746094 29.007812 20.746094 L 27.277344 20.746094 C 27.160156 20.746094 27.054688 20.828125 27.023438 20.945312 L 26.964844 21.164062 L 26.890625 21.464844 L 26.554688 22.738281 C 26.253906 22.835938 25.964844 22.957031 25.683594 23.101562 L 24.09375 22.167969 C 23.988281 22.105469 23.859375 22.125 23.769531 22.210938 L 22.984375 23 L 22.550781 23.4375 C 22.464844 23.523438 22.449219 23.652344 22.507812 23.753906 L 23.4375 25.359375 C 23.292969 25.636719 23.171875 25.929688 23.082031 26.234375 L 21.292969 26.707031 C 21.179688 26.734375 21.097656 26.839844 21.097656 26.960938 L 21.097656 28.695312 C 21.097656 28.824219 21.179688 28.925781 21.292969 28.953125 L 23.082031 29.429688 C 23.171875 29.730469 23.292969 30.023438 23.445312 30.300781 L 22.507812 31.902344 C 22.449219 32.003906 22.464844 32.140625 22.550781 32.222656 L 23.769531 33.453125 C 23.859375 33.535156 23.988281 33.554688 24.09375 33.492188 L 25.683594 32.558594 C 25.878906 32.660156 26.070312 32.746094 26.273438 32.824219 C 26.363281 32.859375 26.460938 32.890625 26.554688 32.921875 L 27.023438 34.71875 C 27.054688 34.835938 27.160156 34.917969 27.277344 34.917969 L 29.007812 34.917969 C 29.128906 34.917969 29.230469 34.835938 29.265625 34.71875 L 29.730469 32.921875 C 30.035156 32.824219 30.324219 32.703125 30.597656 32.558594 L 30.605469 32.5625 L 30.824219 32.695312 L 31.824219 33.273438 L 32.195312 33.492188 C 32.222656 33.511719 32.257812 33.523438 32.289062 33.53125 C 32.371094 33.542969 32.453125 33.511719 32.515625 33.453125 L 33.738281 32.222656 C 33.824219 32.140625 33.835938 32.003906 33.78125 31.902344 L 32.84375 30.300781 C 32.988281 30.023438 33.113281 29.730469 33.207031 29.429688 L 34.996094 28.953125 C 35.109375 28.925781 35.191406 28.824219 35.191406 28.695312 L 35.191406 26.960938 C 35.191406 26.839844 35.109375 26.734375 34.996094 26.707031 Z M 28.140625 31.210938 C 26.285156 31.210938 24.777344 29.699219 24.777344 27.828125 C 24.777344 25.964844 26.285156 24.449219 28.140625 24.449219 C 29.996094 24.449219 31.503906 25.964844 31.503906 27.828125 C 31.503906 29.699219 29.996094 31.210938 28.140625 31.210938 Z M 28.140625 31.210938 "/></g><path style=" stroke:none;fill-rule:nonzero;fill:#4f5d99;fill-opacity:1;" d="M 31.503906 27.828125 C 31.503906 28.277344 31.421875 28.710938 31.25 29.125 C 31.078125 29.539062 30.835938 29.902344 30.519531 30.222656 C 30.203125 30.539062 29.839844 30.78125 29.429688 30.953125 C 29.015625 31.125 28.585938 31.210938 28.140625 31.210938 C 27.695312 31.210938 27.265625 31.125 26.855469 30.953125 C 26.441406 30.78125 26.078125 30.539062 25.761719 30.222656 C 25.449219 29.902344 25.203125 29.539062 25.035156 29.125 C 24.863281 28.710938 24.777344 28.277344 24.777344 27.828125 C 24.777344 27.382812 24.863281 26.949219 25.035156 26.535156 C 25.203125 26.121094 25.449219 25.753906 25.761719 25.4375 C 26.078125 25.121094 26.441406 24.878906 26.855469 24.707031 C 27.265625 24.535156 27.695312 24.449219 28.140625 24.449219 C 28.585938 24.449219 29.015625 24.535156 29.429688 24.707031 C 29.839844 24.878906 30.203125 25.121094 30.519531 25.4375 C 30.835938 25.753906 31.078125 26.121094 31.25 26.535156 C 31.421875 26.949219 31.503906 27.382812 31.503906 27.828125 Z M 31.503906 27.828125 "/><path style=" stroke:none;fill-rule:nonzero;fill:#e9e9ff;fill-opacity:1;" d="M 30.855469 27.828125 C 30.855469 28.191406 30.789062 28.539062 30.652344 28.875 C 30.511719 29.207031 30.316406 29.503906 30.0625 29.761719 C 29.808594 30.015625 29.511719 30.214844 29.179688 30.351562 C 28.847656 30.492188 28.5 30.558594 28.140625 30.558594 C 27.78125 30.558594 27.433594 30.492188 27.101562 30.351562 C 26.769531 30.214844 26.476562 30.015625 26.222656 29.761719 C 25.964844 29.503906 25.769531 29.207031 25.632812 28.875 C 25.496094 28.539062 25.425781 28.191406 25.425781 27.828125 C 25.425781 27.46875 25.496094 27.121094 25.632812 26.785156 C 25.769531 26.449219 25.964844 26.15625 26.222656 25.898438 C 26.476562 25.644531 26.769531 25.445312 27.101562 25.308594 C 27.433594 25.167969 27.78125 25.097656 28.140625 25.097656 C 28.5 25.097656 28.847656 25.167969 29.179688 25.308594 C 29.511719 25.445312 29.808594 25.644531 30.0625 25.898438 C 30.316406 26.15625 30.511719 26.449219 30.652344 26.785156 C 30.789062 27.121094 30.855469 27.46875 30.855469 27.828125 Z M 30.855469 27.828125 "/></g></svg>